/* XPM */
static char *ICON[] = {
/* columns rows colors chars-per-pixel */
"49 33 256 2",
"   c gray100",
".  c red",
"X  c green",
"o  c yellow",
"O  c blue",
"+  c magenta",
"@  c cyan",
"#  c gray80",
"$  c #7E7E7E",
"%  c #7E0000",
"&  c #007E00",
"*  c #7E7E00",
"=  c #00007E",
"-  c #7E007E",
";  c #007E7E",
":  c black",
">  c gray100",
",  c gray93",
"<  c gainsboro",
"1  c gray80",
"2  c #B9B9B9",
"3  c #A9A9A9",
"4  c gray60",
"5  c #868686",
"6  c #767676",
"7  c gray40",
"8  c #535353",
"9  c #434343",
"0  c gray20",
"q  c #202020",
"w  c #101010",
"e  c black",
"r  c red",
"t  c #FF0010",
"y  c #FF0020",
"u  c #FF0033",
"i  c #FF0043",
"p  c #FF0053",
"a  c #FF0066",
"s  c #FF0076",
"d  c #FF0086",
"f  c #FF0099",
"g  c #FF00A9",
"h  c #FF00B9",
"j  c #FF00CC",
"k  c #FF00DC",
"l  c #FF00ED",
"z  c magenta",
"x  c #ED00FF",
"c  c #DC00FF",
"v  c #CC00FF",
"b  c #B900FF",
"n  c #A900FF",
"m  c #9900FF",
"M  c #8600FF",
"N  c #7600FF",
"B  c #6600FF",
"V  c #5300FF",
"C  c #4300FF",
"Z  c #3300FF",
"A  c #2000FF",
"S  c #1000FF",
"D  c blue",
"F  c #0010FF",
"G  c #0020FF",
"H  c #0033FF",
"J  c #0043FF",
"K  c #0053FF",
"L  c #0066FF",
"P  c #0076FF",
"I  c #0086FF",
"U  c #0099FF",
"Y  c #00A9FF",
"T  c #00B9FF",
"R  c #00CCFF",
"E  c #00DCFF",
"W  c #00EDFF",
"Q  c cyan",
"!  c #00FFED",
"~  c #00FFDC",
"^  c #00FFCC",
"/  c #00FFB9",
"(  c #00FFA9",
")  c #00FF99",
"_  c #00FF86",
"`  c #00FF76",
"'  c #00FF66",
"]  c #00FF53",
"[  c #00FF43",
"{  c #00FF33",
"}  c #00FF20",
"|  c #00FF10",
" . c green",
".. c #10FF00",
"X. c #20FF00",
"o. c #33FF00",
"O. c #43FF00",
"+. c #53FF00",
"@. c #66FF00",
"#. c #76FF00",
"$. c #86FF00",
"%. c #99FF00",
"&. c #A9FF00",
"*. c #B9FF00",
"=. c #CCFF00",
"-. c #DCFF00",
";. c #EDFF00",
":. c yellow",
">. c #FFED00",
",. c #FFDC00",
"<. c #FFCC00",
"1. c #FFB900",
"2. c #FFA900",
"3. c #FF9900",
"4. c #FF8600",
"5. c #FF7600",
"6. c #FF6600",
"7. c #FF5300",
"8. c #FF4300",
"9. c #FF3300",
"0. c #FF2000",
"q. c #FF1000",
"w. c #B90000",
"e. c #B90010",
"r. c #B90020",
"t. c #B90033",
"y. c #B90043",
"u. c #B90053",
"i. c #B90066",
"p. c #B90076",
"a. c #B90086",
"s. c #B90099",
"d. c #B900A9",
"f. c #B900B9",
"g. c #A900B9",
"h. c #9900B9",
"j. c #8600B9",
"k. c #7600B9",
"l. c #6600B9",
"z. c #5300B9",
"x. c #4300B9",
"c. c #3300B9",
"v. c #2000B9",
"b. c #1000B9",
"n. c #0000B9",
"m. c #0010B9",
"M. c #0020B9",
"N. c #0033B9",
"B. c #0043B9",
"V. c #0053B9",
"C. c #0066B9",
"Z. c #0076B9",
"A. c #0086B9",
"S. c #0099B9",
"D. c #00A9B9",
"F. c #00B9B9",
"G. c #00B9A9",
"H. c #00B999",
"J. c #00B986",
"K. c #00B976",
"L. c #00B966",
"P. c #00B953",
"I. c #00B943",
"U. c #00B933",
"Y. c #00B920",
"T. c #00B910",
"R. c #00B900",
"E. c #10B900",
"W. c #20B900",
"Q. c #33B900",
"!. c #43B900",
"~. c #53B900",
"^. c #66B900",
"/. c #76B900",
"(. c #86B900",
"). c #99B900",
"_. c #A9B900",
"`. c #B9B900",
"'. c #B9A900",
"]. c #B99900",
"[. c #B98600",
"{. c #B97600",
"}. c #B96600",
"|. c #B95300",
" X c #B94300",
".X c #B93300",
"XX c #B92000",
"oX c #B91000",
"OX c #760000",
"+X c #760010",
"@X c #760020",
"#X c #760033",
"$X c #760043",
"%X c #760053",
"&X c #760066",
"*X c #760076",
"=X c #660076",
"-X c #530076",
";X c #430076",
":X c #330076",
">X c #200076",
",X c #100076",
"<X c #000076",
"1X c #001076",
"2X c #002076",
"3X c #003376",
"4X c #004376",
"5X c #005376",
"6X c #006676",
"7X c #007676",
"8X c #007666",
"9X c #007653",
"0X c #007643",
"qX c #007633",
"wX c #007620",
"eX c #007610",
"rX c #007600",
"tX c #107600",
"yX c #207600",
"uX c #337600",
"iX c #437600",
"pX c #537600",
"aX c #667600",
"sX c #767600",
"dX c #766600",
"fX c #765300",
"gX c #764300",
"hX c #763300",
"jX c #762000",
"kX c #761000",
"lX c #430000",
"zX c #430010",
"xX c #430020",
"cX c #430033",
"vX c #430043",
"bX c #330043",
"nX c #200043",
"mX c #100043",
"MX c #000043",
"NX c #001043",
"BX c #002043",
"VX c #003343",
"CX c #004343",
"ZX c #004333",
"AX c #004320",
"SX c #004310",
"DX c #004300",
"FX c #104300",
"GX c #204300",
"HX c #334300",
"JX c #434300",
"KX c #433300",
"LX c #432000",
"PX c #431000",
"IX c gray100",
"UX c black",
/* pixels */
"                                                                                                  ",
"                                                                                                  ",
"  : : : : : : : : : : : : : : : : : : : : : : : : : : : : : : : : : : : : : : : : : : : : :       ",
"  : # # # # # # # # # # # # # # # # # # # # # # # # # # # # # # # # # # # # # # # # # # # : :     ",
"  : # # # # :                                   :                             X O O O X # : :     ",
"  : # # # # :                                   :                             X O O O X # : :     ",
"  : # $ $ # :     : : :   : :     :   : : :     :                       . O O O .       # : :     ",
"  : # $ $ # :     :       :   :   :     :       :                       . O O O .       # : :     ",
"  : # $ # # :     : :     :   :   :     :       :                 X O O O X             # : :     ",
"  : # # $ # :     :       :   :   :     :       :                 X O O O X             # : :     ",
"  : # # # # :     : : :   : :     :     :       :           . O O O .                   # : :     ",
"  : # # # # :                                   :           . O O O .                   # : :     ",
"  : #   # # :                                   :     X O O O X                         # : :     ",
"  : # #   # :                                   :     X O O O X                         # : :     ",
"  : #     # :                                   . O O O .                               # : :     ",
"  : #     # : $ $ $ $ $ $ $ $ $ $ $ $ $ $ $ $ $ : O O O . $ $ $ $ $ $ $ $ $ $ $ $ $ $ $ # : :     ",
"  : # #   # : $ $ $ $ $ $ $ $ $ $ $ $ $ $ X O O O X $ $ $ $ $ $ $ $ $ $ $ $ $ $ $ $ $ $ # : :     ",
"  : #   # # : $ $ $ $ $ $ $ $ $ $ $ $ $ $ X O O : X $ $ $ $ $ $ $ $ $ $ $ $ $ $ $ $ $ $ # : :     ",
"  : # # # # : $ $ $ $ $ $ $ $ $ $ $ . O O O . $ : $ $ $ $ $ $ $ $ $ $ $ $ $ $ $ $ $ $ $ # : :     ",
"  : # # # # : $ $ $ $ $ $ $ $ $ $ $ . O O O . $ : $ $ $ $ $ $ $ $ $ $ $ $ $ $ $ $ $ $ $ # : :     ",
"  : # $ # # : $ $ $ $ $ $ $ $ X O O O X $ $ $ $ : $ $ $ $ $ $ $ $ $ $ $ $ $ $ $ $ $ $ $ # : :     ",
"  : # # $ # : $ $ $ $ $ $ $ $ X O O O X $ $ $ $ : $ $ $ $ $ $ $ $ $ $ $ $ $ $ $ $ $ $ $ # : :     ",
"  : # $ $ # : $ $ $ $ $ . O O O . $ $ $ $ $ $ $ : $ $ $ $ $ $ $ $ $ $ $ $ $ $ $ $ $ $ $ # : :     ",
"  : # $ $ # : $ $ $ $ $ . O O O . $ $ $ $ $ $ $ : $ $ $ $ $ $ $ $ $ $ $ $ $ $ $ $ $ $ $ # : :     ",
"  : # : $ # : $ $ X O O O X $ $ $ $ $ $ $ $ $ $ : $ $ $ $ $ $ $ $ $ $ $ $ $ $ $ $ $ $ $ # : :     ",
"  : # $ : # : $ $ X O O O X $ $ $ $ $ $ $ $ $ $ : $ $ $ $ $ $ $ $ $ $ $ $ $ $ $ $ $ $ $ # : :     ",
"  : # : : # . O O O . $ $ $ $ $ $ $ $ $ $ $ $ $ : $ $ $ $ $ $ $ $ $ $ $ $ $ $ $ $ $ $ $ # : :     ",
"  : # : : # : O O O .                           :                                       # : :     ",
"  : # # # # # # # # # # # # # # # # # # # # # # # # # # # # # # # # # # # # # # # # # # # : :     ",
"  : : : : : : : : : : : : : : : : : : : : : : : : : : : : : : : : : : : : : : : : : : : : : :     ",
"    : : : : : : : : : : : : : : : : : : : : : : : : : : : : : : : : : : : : : : : : : : : : :     ",
"                                                                                                  ",
"                                                                                                  "
};
